# AST/ASF file generated using VICON BodyLanguage
# -----------------------------------------------
:version 1.10
:name VICON
:units
  mass 1.0
  length 0.45
  angle deg
:documentation
   .ast/.asf automatically generated from VICON data using
   VICON BodyBuilder and BodyLanguage model FoxedUp or BRILLIANT.MOD
:root
   order TX TY TZ RX RY RZ
   axis XYZ
   position 0 0 0  
   orientation 0 0 0 
:bonedata
  begin
     id 1 
     name lhipjoint
     direction 0.621036 -0.695554 0.361275 
     length 2.46325 
     axis 0 0 0  XYZ
  end
  begin
     id 2 
     name lfemur
     direction 0.34202 -0.939693 0  
     length 6.54784  
     axis 0 0 20  XYZ
    dof rx ry rz
    limits (-160.0 20.0)
           (-70.0 70.0)
           (-60.0 70.0)
  end
  begin
     id 3 
     name ltibia
     direction 0.34202 -0.939693 0   
     length 7.84737   
     axis 0 0 20   XYZ
    dof rx
    limits (-10.0 170.0)
  end
  begin
     id 4 
     name lfoot
     direction 0.0790693 -0.217241 0.97291   
     length 2.59747   
     axis -90 7.62852e-016 20   XYZ
    dof rx rz
    limits (-45.0 90.0)
           (-70.0 20.0)
  end
  begin
     id 5 
     name ltoes
     direction 1.53572e-011 -4.21898e-011 1   
     length 1.29919   
     axis -90 7.62852e-016 20   XYZ
    dof rx
    limits (-90.0 20.0)
  end
  begin
     id 6 
     name rhipjoint
     direction -0.602353 -0.708375 0.367935   
     length 2.41867  
     axis 0 0 0  XYZ 
  end
  begin
     id 7 
     name rfemur
     direction -0.34202 -0.939693 0   
     length 6.92065   
     axis 0 0 -20   XYZ
    dof rx ry rz
    limits (-160.0 20.0)
           (-70.0 70.0)
           (-70.0 60.0)
  end
  begin
     id 8 
     name rtibia
     direction -0.34202 -0.939693 0   
     length 7.88883   
     axis 0 0 -20   XYZ
    dof rx
    limits (-10.0 170.0)
 end
 begin
     id 9 
     name rfoot
     direction -0.0768692 -0.211196 0.974416   
     length 2.43714  
     axis -90 -7.62852e-016 -20   XYZ
    dof rx rz
    limits (-45.0 90.0)
           (-20.0 70.0)
  end
  begin
     id 10 
     name rtoes
     direction -1.53575e-011 -4.21933e-011 1   
     length 1.22113   
     axis -90 -7.62852e-016 -20   XYZ
    dof rx
    limits (-90.0 20.0)
  end
  begin
     id 11 
     name lowerback
     direction 0.0197937 0.98943 -0.143655   
     length 2.16931   
     axis 0 0 0   XYZ
    dof rx ry rz
    limits (-20.0 45.0)
           (-30.0 30.0)
           (-30.0 30.0)
  end
  begin
     id 12 
     name upperback
     direction -0.00183968 0.999975 0.00684288   
     length 2.17221   
     axis 0 0 0   XYZ
    dof rx ry rz
    limits (-20.0 45.0)
           (-30.0 30.0)
           (-30.0 30.0)
  end
  begin
     id 13 
     name thorax
     direction -0.00950244 0.997208 0.0740685   
     length 2.22549   
     axis 0 0 0   XYZ
    dof rx ry rz
    limits (-20.0 45.0)
           (-30.0 30.0)
           (-30.0 30.0)
  end
  begin
     id 14 
     name lowerneck
     direction 0.0218238 0.996215 0.0841425   
     length 1.77269   
     axis 0 0 0   XYZ
    dof rx ry rz
    limits (-20.0 45.0)
           (-30.0 30.0)
           (-30.0 30.0)
  end
  begin
     id 15 
     name upperneck
     direction -0.00430652 0.994214 -0.107332   
     length 1.76534   
     axis 0 0 0   XYZ
    dof rx ry rz
    limits (-20.0 45.0)
           (-30.0 30.0)
           (-30.0 30.0)
  end
  begin
     id 16
     name head
     direction -0.00328946 0.998959 -0.0454998  
     length 1.82634  
     axis 0 0 0   XYZ
    dof rx ry rz
    limits (-20.0 45.0)
           (-30.0 30.0)
           (-30.0 30.0)
  end
  begin
     id 17 
     name lclavicle
     direction 0.970962 0.239191 0.00450212  
     length 3.84872  
     axis 0 0 0   XYZ
    dof ry rz
    limits (-20.0 10.0)
           (0.0 20.0)
  end
  begin
     id 18 
     name lhumerus
     direction 1 -4.48966e-011 5.74696e-028   
     length 5.22771   
     axis 180 -30 -90   XYZ
    dof rx ry rz
    limits (-60.0 90.0)
           (-90.0 90.0)
           (-90.0 90.0)
  end
  begin
     id 19
     name lradius
     direction 1 -4.4896e-011 4.25109e-027   
     length 3.45251   
     axis 180 -30 -90   XYZ
    dof rx
    limits (-10.0 170.0)
  end
  begin
     id 20
     name lwrist
     direction 1 -4.48971e-011 1.15382e-027   
     length 1.72626   
     axis -5.52449e-016 90 90   XYZ
    dof ry
    limits (-180.0 0.0)
 end
  begin
     id 21 
     name lhand
     direction 1 -4.49034e-011 2.30765e-027   
     length 0.552119   
     axis -1.47248e-015 90 90   XYZ
    dof rx rz
    limits (-90.0 90.0)
           (-45.0 45.0)
  end
  begin
     id 22 
     name lfingers
     direction 1 -4.48951e-011 4.61529e-027   
     length 0.445133   
     axis -2.94495e-015 90 90   XYZ
    dof rx
    limits (0.0 90.0)
  end
  begin
     id 23
     name lthumb
     direction 0.707107 -6.34991e-011 0.707107   
     length 0.639124   
     axis -90 45 2.85299e-015   XYZ
    dof rx rz
    limits (-45.0 45.0)
           (-45.0 45.0)
  end
  begin
     id 24 
     name rclavicle
     direction -0.97424 0.222511 -0.0366699   
     length 3.73439  
     axis 0 0 0   XYZ 
    dof ry rz
    limits (-10.0 20.0)
           (-20.0 0.0)
  end
  begin
     id 25 
     name rhumerus
     direction -1 -4.48956e-011 -4.97258e-028  
     length 5.2398   
     axis 180 30 90   XYZ
    dof rx ry rz
    limits (-90.0 60.0)
           (-90.0 90.0)
           (-90.0 90.0)
  end
  begin
     id 26 
     name rradius
     direction -1 -4.4897e-011 -1.72611e-027   
     length 3.48042   
     axis 180 30 90   XYZ
    dof rx
    limits (-10.0 170.0)
  end
  begin
     id 27 
     name rwrist
     direction -1 -4.48976e-011 1.15382e-027   
     length 1.74021   
     axis -5.52449e-016 -90 -90   XYZ
    dof ry
    limits (-180.0 0.0)
  end
  begin
     id 28
     name rhand
     direction -1 -4.48963e-011 2.30765e-027   
     length 0.618713   
     axis -1.47248e-015 -90 -90   XYZ
    dof rx rz
    limits (-90.0 90.0)
           (-45.0 45.0)
  end
  begin
     id 29
     name rfingers
     direction -1 -4.4888e-011 4.61529e-027   
     length 0.498823   
     axis -2.94495e-015 -90 -90   XYZ
    dof rx
    limits (0.0 90.0)
  end
  begin
     id 30
     name rthumb
     direction -0.707107 -6.34968e-011 0.707107   
     length 0.716213   
     axis -90 -45 -2.85299e-015   XYZ
    dof rx rz
    limits (-45.0 45.0)
           (-45.0 45.0)
  end
:hierarchy
  begin
    root lhipjoint rhipjoint lowerback
    lhipjoint lfemur
    lfemur ltibia
    ltibia lfoot
    lfoot ltoes
    rhipjoint rfemur
    rfemur rtibia
    rtibia rfoot
    rfoot rtoes
    lowerback upperback
    upperback thorax
    thorax lowerneck lclavicle rclavicle
    lowerneck upperneck
    upperneck head
    lclavicle lhumerus
    lhumerus lradius
    lradius lwrist
    lwrist lhand lthumb
    lhand lfingers
    rclavicle rhumerus
    rhumerus rradius
    rradius rwrist
    rwrist rhand rthumb
    rhand rfingers
  end

#!OML:ASF G:\JayActor3\Patient Classification 1\Patient 1\Session 5\male.ASF
:FULLY-SPECIFIED
:DEGREES
239
root -37.0156 18.1912 -4.89184 135.273 -84.2828 -134.985
lowerback 0.711135 -1.51866 3.2629
upperback 0.234035 -2.01355 1.20536
thorax -0.227276 -1.01326 -0.572877
lowerneck -6.70929 1.21155 2.74866
upperneck 7.93866 1.23907 0.746106
head 3.79262 0.717964 -0.17291
rclavicle 1.80409e-014 -8.34896e-015
rhumerus -34.5567 -10.2659 -82.396
rradius 26.723
rwrist 4.71056
rhand -17.7865 -10.7958
rfingers 7.12502
rthumb 8.4764 -40.6057
lclavicle 1.80409e-014 -8.34896e-015
lhumerus -34.0821 6.78259 83.2311
lradius 25.9004
lwrist 17.1856
lhand -17.1042 12.3933
lfingers 7.12502
lthumb 9.13482 42.1755
rfemur -11.2103 4.78588 22.2016
rtibia 35.0632
rfoot -3.20567 -5.62458
rtoes -2.43324
lfemur -3.95157 13.6682 -17.8616
ltibia 20.1515
lfoot 7.0516 4.84652
ltoes -22.5381
240
root -36.9884 18.1818 -4.8836 134.24 -84.2335 -133.985
lowerback 0.755994 -1.53922 3.36569
upperback 0.196967 -2.03761 1.23366
thorax -0.293743 -1.0268 -0.598878
lowerneck -6.68615 1.21484 2.73749
upperneck 8.01599 1.24681 0.711002
head 3.81567 0.720356 -0.18202
rclavicle -1.36195e-014 -8.84592e-015
rhumerus -34.6751 -10.3488 -82.3229
rradius 26.7329
rwrist 4.7242
rhand -17.7891 -10.7885
rfingers 7.12502
rthumb 8.4739 -40.5985
lclavicle -1.36195e-014 -8.84592e-015
lhumerus -34.0637 6.74832 83.2001
lradius 25.8938
lwrist 17.1219
lhand -17.1635 12.4082
lfingers 7.12502
lthumb 9.07754 42.1929
rfemur -10.716 4.80538 22.2916
rtibia 35.2625
rfoot -3.64144 -5.25209
rtoes -3.29199
lfemur -4.17724 13.7572 -17.7533
ltibia 20.4701
lfoot 6.85429 4.62465
ltoes -22.4852
241
root -36.961 18.1723 -4.87561 133.301 -84.2012 -133.099
lowerback 0.795055 -1.55383 3.45623
upperback 0.171136 -2.05421 1.25328
thorax -0.345131 -1.03631 -0.627367
lowerneck -6.6644 1.21352 2.71375
upperneck 8.09279 1.24762 0.696848
head 3.83842 0.719798 -0.182344
rclavicle 7.94634e-015 -5.73991e-015
rhumerus -34.7896 -10.4458 -82.242
rradius 26.7269
rwrist 4.76565
rhand -17.7926 -10.7826
rfingers 7.12502
rthumb 8.47045 -40.5927
lclavicle 7.94634e-015 -5.73991e-015
lhumerus -34.0204 6.73707 83.1627
lradius 25.8742
lwrist 17.049
lhand -17.2436 12.4017
lfingers 7.12502
lthumb 9.0003 42.1897
rfemur -10.1683 4.82233 22.3691
rtibia 35.5342
rfoot -3.9221 -4.93499
rtoes -4.28357
lfemur -4.38024 13.8106 -17.6725
ltibia 20.7841
lfoot 6.664 4.46122
ltoes -22.3913
242
root -36.9337 18.163 -4.86869 132.472 -84.1631 -132.331
lowerback 0.812874 -1.55539 3.54143
upperback 0.160123 -2.05479 1.27005
thorax -0.36878 -1.03732 -0.656917
lowerneck -6.70104 1.21503 2.65201
upperneck 8.20804 1.24882 0.733024
head 3.88559 0.720932 -0.158788
rclavicle 5.26523e-014 -1.13307e-014
rhumerus -34.8889 -10.5498 -82.1633
rradius 26.7078
rwrist 4.80515
rhand -17.8192 -10.7915
rfingers 7.12502
rthumb 8.44483 -40.6026
lclavicle 5.26523e-014 -1.13307e-014
lhumerus -33.9475 6.74141 83.1235
lradius 25.8479
lwrist 16.974
lhand -17.3288 12.3892
lfingers 7.12502
lthumb 8.91806 42.1807
rfemur -9.58478 4.87397 22.4571
rtibia 35.8733
rfoot -4.07714 -4.68371
rtoes -5.30622
lfemur -4.56543 13.8268 -17.6007
ltibia 21.0851
lfoot 6.48993 4.37023
ltoes -22.245
243
root -36.9065 18.1539 -4.86252 131.862 -84.1285 -131.788
lowerback 0.802749 -1.54689 3.6099
upperback 0.161347 -2.04376 1.2809
thorax -0.363408 -1.03195 -0.684452
lowerneck -6.71903 1.20906 2.60446
upperneck 8.2928 1.24061 0.760179
head 3.91844 0.717152 -0.141421
rclavicle -6.97416e-015 -1.2921e-015
rhumerus -34.9726 -10.6129 -82.1164
rradius 26.7134
rwrist 4.82277
rhand -17.8508 -11.0222
rfingers 7.12502
rthumb 8.41431 -40.8346
lclavicle -6.97416e-015 -1.2921e-015
lhumerus -33.854 6.75757 83.0841
lradius 25.8246
lwrist 16.9132
lhand -17.4194 12.3525
lfingers 7.12502
lthumb 8.83059 42.1478
rfemur -8.97784 4.95347 22.5365
rtibia 36.2749
rfoot -4.13352 -4.46625
rtoes -6.10361
lfemur -4.73424 13.8123 -17.555
ltibia 21.3653
lfoot 6.33639 4.34483
ltoes -22.0601
244
root -36.8795 18.1451 -4.85688 131.541 -84.118 -131.532
lowerback 0.753779 -1.53216 3.64586
upperback 0.176318 -2.02685 1.27915
thorax -0.321251 -1.02281 -0.708282
lowerneck -6.73252 1.1997 2.56991
upperneck 8.35928 1.22778 0.779548
head 3.9441 0.711011 -0.129273
rclavicle 6.12622e-015 1.32689e-014
rhumerus -35.0326 -10.6394 -82.1037
rradius 26.7335
rwrist 4.80757
rhand -17.8949 -11.434
rfingers 7.12502
rthumb 8.3718 -41.2481
lclavicle 6.12622e-015 1.32689e-014
lhumerus -33.7442 6.77351 83.0479
lradius 25.8158
lwrist 16.88
lhand -17.509 12.2896
lfingers 7.12502
lthumb 8.74421 42.0885
rfemur -8.35595 5.04839 22.5827
rtibia 36.7315
rfoot -4.11113 -4.26107
rtoes -6.67782
lfemur -4.88441 13.781 -17.5563
ltibia 21.6138
lfoot 6.20138 4.36232
ltoes -21.8479
245
root -36.8529 18.137 -4.85264 131.499 -84.1145 -131.546
lowerback 0.667072 -1.5079 3.65591
upperback 0.197275 -1.99935 1.27
thorax -0.250749 -1.00778 -0.726576
lowerneck -6.75006 1.1857 2.5508
upperneck 8.41834 1.20796 0.790483
head 3.96813 0.701502 -0.12305
rclavicle 2.9926e-014 -8.10048e-015
rhumerus -35.0763 -10.6353 -82.1191
rradius 26.7694
rwrist 4.7827
rhand -17.9219 -12.0163
rfingers 7.12502
rthumb 8.34575 -41.8314
lclavicle 2.9926e-014 -8.10048e-015
lhumerus -33.6303 6.77541 83.0166
lradius 25.8327
lwrist 16.8842
lhand -17.5804 12.2257
lfingers 7.12502
lthumb 8.67524 42.0275
rfemur -7.73685 5.18393 22.6178
rtibia 37.235
rfoot -4.02829 -4.07154
rtoes -7.04935
lfemur -5.02181 13.7547 -17.5834
ltibia 21.8177
lfoot 6.09354 4.39576
ltoes -21.6484
246
root -36.8263 18.1298 -4.84945 131.736 -84.1307 -131.827
lowerback 0.555891 -1.47935 3.63784
upperback 0.213395 -1.96707 1.24819
thorax -0.170797 -0.990138 -0.742752
lowerneck -6.72303 1.16423 2.5792
upperneck 8.44194 1.17939 0.757568
head 3.97142 0.68679 -0.140695
rclavicle 7.46976e-015 9.0447e-015
rhumerus -35.1229 -10.62 -82.1508
rradius 26.8078
rwrist 4.75073
rhand -17.9435 -12.6327
rfingers 7.12502
rthumb 8.32488 -42.4487
lclavicle 7.46976e-015 9.0447e-015
lhumerus -33.5366 6.75973 82.9841
lradius 25.8876
lwrist 16.9283
lhand -17.6129 12.1811
lfingers 7.12502
lthumb 8.64392 41.9842
rfemur -7.12731 5.34135 22.6276
rtibia 37.7747
rfoot -3.8821 -3.88255
rtoes -7.35266
lfemur -5.14204 13.7509 -17.6427
ltibia 21.9654
lfoot 6.01593 4.40764
ltoes -21.4543
247
root -36.7992 18.1237 -4.84727 132.149 -84.169 -132.273
lowerback 0.427074 -1.45145 3.59785
upperback 0.219755 -1.93595 1.21461
thorax -0.0907094 -0.973063 -0.758942
lowerneck -6.66691 1.14372 2.6317
upperneck 8.45182 1.15224 0.708342
head 3.96439 0.672592 -0.168149
rclavicle 4.19478e-014 -1.43622e-014
rhumerus -35.1731 -10.627 -82.1758
rradius 26.8142
rwrist 4.75194
rhand -17.9545 -13.1466
rfingers 7.12502
rthumb 8.31425 -42.963
lclavicle 4.19478e-014 -1.43622e-014
lhumerus -33.4693 6.71585 82.9497
lradius 25.9869
lwrist 17.0247
lhand -17.6116 12.1694
lfingers 7.12502
lthumb 8.64512 41.9724
rfemur -6.53483 5.51224 22.6187
rtibia 38.3353
rfoot -3.66262 -3.70371
rtoes -7.67025
lfemur -5.25123 13.7755 -17.7244
ltibia 22.0572
lfoot 5.97114 4.36853
ltoes -21.2766
